<?xml version="1.0" encoding="UTF-8"?>
<svg xmlns="http://www.w3.org/2000/svg" xmlns:xlink="http://www.w3.org/1999/xlink" width="68.828" height="40.482" viewBox="0 0 68.828 40.482">
<path fill-rule="evenodd" fill="rgb(89.99939%, 89.99939%, 89.99939%)" fill-opacity="1" d="M 62.316406 19.984375 C 62.316406 12.257812 49.785156 5.992188 34.328125 5.992188 C 18.871094 5.992188 6.339844 12.257812 6.339844 19.984375 C 6.339844 27.714844 18.871094 33.980469 34.328125 33.980469 C 49.785156 33.980469 62.316406 27.714844 62.316406 19.984375 Z M 45.523438 19.984375 C 45.523438 16.894531 40.511719 14.386719 34.328125 14.386719 C 28.144531 14.386719 23.132812 16.894531 23.132812 19.984375 C 23.132812 23.078125 28.144531 25.582031 34.328125 25.582031 C 40.511719 25.582031 45.523438 23.078125 45.523438 19.984375 Z M 45.523438 19.984375 "/>
<path fill="none" stroke-width="0.79701" stroke-linecap="round" stroke-linejoin="round" stroke="rgb(0%, 0%, 0%)" stroke-opacity="1" stroke-miterlimit="10" d="M 28.34544 0.000908725 C 28.34544 7.826339 15.653843 14.172138 -0.00097384 14.172138 C -15.65579 14.172138 -28.347388 7.826339 -28.347388 0.000908725 C -28.347388 -7.828478 -15.65579 -14.174276 -0.00097384 -14.174276 C 15.653843 -14.174276 28.34544 -7.828478 28.34544 0.000908725 Z M 28.34544 0.000908725 " transform="matrix(0.987366, 0, 0, -0.987366, 34.329087, 19.985272)"/>
<path fill="none" stroke-width="0.79701" stroke-linecap="round" stroke-linejoin="round" stroke="rgb(0%, 0%, 0%)" stroke-opacity="1" stroke-miterlimit="10" d="M 11.337592 0.000908725 C 11.337592 3.13029 6.261744 5.670192 -0.00097384 5.670192 C -6.263692 5.670192 -11.339539 3.13029 -11.339539 0.000908725 C -11.339539 -3.132428 -6.263692 -5.668374 -0.00097384 -5.668374 C 6.261744 -5.668374 11.337592 -3.132428 11.337592 0.000908725 Z M 11.337592 0.000908725 " transform="matrix(0.987366, 0, 0, -0.987366, 34.329087, 19.985272)"/>
</svg>
