<?xml version="1.0" encoding="UTF-8"?>
<svg xmlns="http://www.w3.org/2000/svg" xmlns:xlink="http://www.w3.org/1999/xlink" width="80.167" height="46.151" viewBox="0 0 80.167 46.151">
<path fill-rule="nonzero" fill="rgb(87.5%, 87.5%, 87.5%)" fill-opacity="1" stroke-width="0.79701" stroke-linecap="round" stroke-linejoin="round" stroke="rgb(0%, 0%, 0%)" stroke-opacity="1" stroke-miterlimit="10" d="M -34.015037 -17.008435 L -34.015037 17.008382 L -17.008617 17.008382 L -17.008617 -17.008435 Z M -34.015037 -17.008435 " transform="matrix(0.981936, 0, 0, -0.981936, 39.674033, 22.658177)"/>
<path fill-rule="nonzero" fill="rgb(87.5%, 87.5%, 87.5%)" fill-opacity="1" stroke-width="0.79701" stroke-linecap="round" stroke-linejoin="round" stroke="rgb(0%, 0%, 0%)" stroke-opacity="1" stroke-miterlimit="10" d="M 17.008201 -17.008435 L 17.008201 17.008382 L 34.01462 17.008382 L 34.01462 -17.008435 Z M 17.008201 -17.008435 " transform="matrix(0.981936, 0, 0, -0.981936, 39.674033, 22.658177)"/>
<path fill="none" stroke-width="0.79701" stroke-linecap="round" stroke-linejoin="round" stroke="rgb(0%, 0%, 0%)" stroke-opacity="1" stroke-miterlimit="10" d="M -10.062837 0.00196258 L 10.062421 0.00196258 " transform="matrix(0.981936, 0, 0, -0.981936, 39.674033, 22.658177)"/>
<path fill-rule="nonzero" fill="rgb(0%, 0%, 0%)" fill-opacity="1" stroke-width="0.79701" stroke-linecap="round" stroke-linejoin="miter" stroke="rgb(0%, 0%, 0%)" stroke-opacity="1" stroke-miterlimit="10" d="M 5.440563 -0.00196258 L 1.287417 1.569391 L 2.663843 -0.00196258 L 1.287417 -1.569338 Z M 5.440563 -0.00196258 " transform="matrix(-0.981936, 0, 0, 0.981936, 32.21338, 22.658177)"/>
<path fill-rule="nonzero" fill="rgb(0%, 0%, 0%)" fill-opacity="1" stroke-width="0.79701" stroke-linecap="round" stroke-linejoin="miter" stroke="rgb(0%, 0%, 0%)" stroke-opacity="1" stroke-miterlimit="10" d="M 5.440147 0.00196258 L 1.287 1.569338 L 2.663426 0.00196258 L 1.287 -1.569391 Z M 5.440147 0.00196258 " transform="matrix(0.981936, 0, 0, -0.981936, 47.134685, 22.658177)"/>
</svg>
