<?xml version="1.0" encoding="UTF-8"?>
<svg xmlns="http://www.w3.org/2000/svg" xmlns:xlink="http://www.w3.org/1999/xlink" width="68.828" height="80.665" viewBox="0 0 68.828 80.665">
<path fill="none" stroke-width="1.29515" stroke-linecap="round" stroke-linejoin="round" stroke="rgb(0%, 0%, 0%)" stroke-opacity="1" stroke-dasharray="2.98883 2.98883" stroke-miterlimit="10" d="M -0.000231637 -34.017468 L -0.000231637 34.017819 " transform="matrix(0.995864, 0, 0, -0.995864, 34.328356, 40.166191)"/>
<path fill-rule="nonzero" fill="rgb(89.99939%, 89.99939%, 89.99939%)" fill-opacity="1" stroke-width="0.79701" stroke-linecap="round" stroke-linejoin="round" stroke="rgb(0%, 0%, 0%)" stroke-opacity="1" stroke-miterlimit="10" d="M -28.347941 -17.009627 L -8.504152 -17.009627 L -8.504152 17.006056 Z M -28.347941 -17.009627 " transform="matrix(0.995864, 0, 0, -0.995864, 34.328356, 40.166191)"/>
<path fill-rule="nonzero" fill="rgb(89.99939%, 89.99939%, 89.99939%)" fill-opacity="1" stroke-width="0.79701" stroke-linecap="round" stroke-linejoin="round" stroke="rgb(0%, 0%, 0%)" stroke-opacity="1" stroke-miterlimit="10" d="M 28.347478 -17.009627 L 8.503689 -17.009627 L 8.503689 17.006056 Z M 28.347478 -17.009627 " transform="matrix(0.995864, 0, 0, -0.995864, 34.328356, 40.166191)"/>
<path fill="none" stroke-width="0.79701" stroke-linecap="round" stroke-linejoin="round" stroke="rgb(0%, 0%, 0%)" stroke-opacity="1" stroke-miterlimit="10" d="M -1.557453 25.513899 L 1.560912 25.513899 " transform="matrix(0.995864, 0, 0, -0.995864, 34.328356, 40.166191)"/>
<path fill-rule="nonzero" fill="rgb(0%, 0%, 0%)" fill-opacity="1" stroke-width="0.79701" stroke-linecap="round" stroke-linejoin="miter" stroke="rgb(0%, 0%, 0%)" stroke-opacity="1" stroke-miterlimit="10" d="M 5.44071 -0.00189862 L 1.286811 1.571013 L 2.663599 -0.00189862 L 1.286811 -1.570888 Z M 5.44071 -0.00189862 " transform="matrix(-0.995864, 0, 0, 0.995864, 35.230708, 14.759703)"/>
<path fill-rule="nonzero" fill="rgb(0%, 0%, 0%)" fill-opacity="1" stroke-width="0.79701" stroke-linecap="round" stroke-linejoin="miter" stroke="rgb(0%, 0%, 0%)" stroke-opacity="1" stroke-miterlimit="10" d="M 5.440247 0.00189862 L 1.286348 1.570888 L 2.663136 0.00189862 L 1.286348 -1.571013 Z M 5.440247 0.00189862 " transform="matrix(0.995864, 0, 0, -0.995864, 33.426003, 14.759703)"/>
</svg>
