{
  "asset": { "version": "2.0" },
  "scene": 0,
  "scenes": [{ "nodes": [0, 1] }],
  "nodes": [
    { "mesh": 0, "translation": [-5, 0, 0] },
    { "mesh": 0, "translation": [5, 0, 0] }
  ],
  "meshes": [{
    "primitives": [{
      "attributes": { "POSITION": 0 },
      "indices": 1
    }]
  }],
  "accessors": [
    {
      "bufferView": 0,
      "componentType": 5126,
      "count": 8,
      "type": "VEC3",
      "min": [-0.5, -0.5, -0.5],
      "max": [ 0.5,  0.5,  0.5]
    },
    {
      "bufferView": 1,
      "componentType": 5123,
      "count": 36,
      "type": "SCALAR"
    }
  ],
  "bufferViews": [
    { "buffer": 0, "byteOffset":  0, "byteLength": 96  },
    { "buffer": 0, "byteOffset": 96, "byteLength": 72  }
  ],
  "buffers": [{
    "byteLength": 168,
    "uri": "data:application/octet-stream;base64,"
  }]
}
