$ Created by Gmsh
GRID    1       0       1.500000-2.000002.500000
GRID    2       0       1.5000002.0000002.500000
GRID    3       0       -1.500002.0000002.500000
GRID    4       0       -1.50000-2.000002.500000
GRID    5       0       1.5000002.000000-2.50000
GRID    6       0       1.500000-2.00000-2.50000
GRID    7       0       -1.50000-2.00000-2.50000
GRID    8       0       -1.500002.000000-2.50000
GRID    9       0       1.500000-2.5E-152.500000
GRID    10      0       2.22E-152.0000002.500000
GRID    11      0       -1.500002.50E-152.500000
GRID    12      0       -2.2E-15-2.000002.500000
GRID    13      0       1.5000002.50E-15-2.50000
GRID    14      0       2.22E-15-2.00000-2.50000
GRID    15      0       -1.50000-2.5E-15-2.50000
GRID    16      0       -2.2E-152.000000-2.50000
GRID    17      0       -1.50000-2.000000.00E+00
GRID    18      0       1.500000-2.000000.00E+00
GRID    19      0       -1.500002.0000000.00E+00
GRID    20      0       1.5000002.0000000.00E+00
GRID    21      0       0.4500000.9312502.500000
GRID    22      0       -0.02186-0.464922.500000
GRID    23      0       -0.581690.9237612.500000
GRID    24      0       -0.450000.931250-2.50000
GRID    25      0       0.021866-0.46492-2.50000
GRID    26      0       0.5816950.923761-2.50000
GRID    27      0       -1.50000-0.691021.092816
GRID    28      0       -1.50000-0.07812-0.51250
GRID    29      0       -1.500000.6461711.116063
GRID    30      0       1.5000000.6910201.092816
GRID    31      0       1.5000000.078125-0.51250
GRID    32      0       1.500000-0.646171.116063
CBAR    9       1       1       9       0.      0.      0.      
CBAR    10      1       9       2       0.      0.      0.      
CBAR    11      2       2       10      0.      0.      0.      
CBAR    12      2       10      3       0.      0.      0.      
CBAR    13      3       3       11      0.      0.      0.      
CBAR    14      3       11      4       0.      0.      0.      
CBAR    15      4       4       12      0.      0.      0.      
CBAR    16      4       12      1       0.      0.      0.      
CBAR    17      5       5       13      0.      0.      0.      
CBAR    18      5       13      6       0.      0.      0.      
CBAR    19      6       6       14      0.      0.      0.      
CBAR    20      6       14      7       0.      0.      0.      
CBAR    21      7       7       15      0.      0.      0.      
CBAR    22      7       15      8       0.      0.      0.      
CBAR    23      8       8       16      0.      0.      0.      
CBAR    24      8       16      5       0.      0.      0.      
CBAR    25      9       4       17      0.      0.      0.      
CBAR    26      9       17      7       0.      0.      0.      
CBAR    27      10      1       18      0.      0.      0.      
CBAR    28      10      18      6       0.      0.      0.      
CBAR    29      11      3       19      0.      0.      0.      
CBAR    30      11      19      8       0.      0.      0.      
CBAR    31      12      2       20      0.      0.      0.      
CBAR    32      12      20      5       0.      0.      0.      
CTRIA3  33      1       9       22      1       
CTRIA3  34      1       1       22      12      
CTRIA3  35      1       2       21      9       
CTRIA3  36      1       10      21      2       
CTRIA3  37      1       3       23      10      
CTRIA3  38      1       11      23      3       
CTRIA3  39      1       4       22      11      
CTRIA3  40      1       12      22      4       
CTRIA3  41      1       21      22      9       
CTRIA3  42      1       10      23      21      
CTRIA3  43      1       22      23      11      
CTRIA3  44      1       21      23      22      
CTRIA3  45      2       5       13      26      
CTRIA3  46      2       16      5       26      
CTRIA3  47      2       13      6       25      
CTRIA3  48      2       6       14      25      
CTRIA3  49      2       14      7       25      
CTRIA3  50      2       7       15      25      
CTRIA3  51      2       15      8       24      
CTRIA3  52      2       8       16      24      
CTRIA3  53      2       13      25      26      
CTRIA3  54      2       15      24      25      
CTRIA3  55      2       24      16      26      
CTRIA3  56      2       25      24      26      
CTRIA3  57      3       18      1       12      
CTRIA3  58      3       12      4       17      
CTRIA3  59      3       18      14      6       
CTRIA3  60      3       7       14      17      
CTRIA3  61      3       18      12      17      
CTRIA3  62      3       14      18      17      
CTRIA3  63      4       11      3       29      
CTRIA3  64      4       3       19      29      
CTRIA3  65      4       4       11      27      
CTRIA3  66      4       17      4       27      
CTRIA3  67      4       15      7       28      
CTRIA3  68      4       7       17      28      
CTRIA3  69      4       8       15      28      
CTRIA3  70      4       19      8       28      
CTRIA3  71      4       27      11      29      
CTRIA3  72      4       17      27      28      
CTRIA3  73      4       19      28      29      
CTRIA3  74      4       28      27      29      
CTRIA3  75      5       20      10      2       
CTRIA3  76      5       10      19      3       
CTRIA3  77      5       16      20      5       
CTRIA3  78      5       16      8       19      
CTRIA3  79      5       20      19      10      
CTRIA3  80      5       20      16      19      
CTRIA3  81      6       9       1       32      
CTRIA3  82      6       1       18      32      
CTRIA3  83      6       2       9       30      
CTRIA3  84      6       20      2       30      
CTRIA3  85      6       13      5       31      
CTRIA3  86      6       5       20      31      
CTRIA3  87      6       6       13      31      
CTRIA3  88      6       18      6       31      
CTRIA3  89      6       30      9       32      
CTRIA3  90      6       18      31      32      
CTRIA3  91      6       20      30      31      
CTRIA3  92      6       31      30      32      
CTETRA  93      1       22      29      23      21      
CTETRA  94      1       22      27      29      32      
CTETRA  95      1       29      22      32      30      
CTETRA  96      1       22      29      21      30      
CTETRA  97      1       20      31      24      26      
CTETRA  98      1       27      28      29      32      
CTETRA  99      1       30      32      29      31      
CTETRA  100     1       29      10      23      21      
CTETRA  101     1       29      10      21      30      
CTETRA  102     1       24      16      20      26      
CTETRA  103     1       26      31      24      25      
CTETRA  104     1       30      29      19      31      
CTETRA  105     1       32      27      28      18      
CTETRA  106     1       28      29      32      31      
CTETRA  107     1       19      28      24      31      
CTETRA  108     1       32      12      27      18      
CTETRA  109     1       10      29      19      30      
CTETRA  110     1       22      12      27      32      
CTETRA  111     1       31      24      19      20      
CTETRA  112     1       24      16      19      20      
CTETRA  113     1       28      24      31      25      
CTETRA  114     1       29      28      19      31      
CTETRA  115     1       31      32      28      18      
CTETRA  116     1       25      31      28      18      
CTETRA  117     1       25      28      17      18      
CTETRA  118     1       27      17      28      18      
CTETRA  119     1       19      30      31      20      
CTETRA  120     1       25      17      14      18      
CTETRA  121     1       30      19      10      20      
CTETRA  122     1       17      27      12      18      
CTETRA  123     1       21      9       22      30      
CTETRA  124     1       24      15      28      8       
CTETRA  125     1       28      15      24      25      
CTETRA  126     1       25      13      31      6       
CTETRA  127     1       29      23      11      22      
CTETRA  128     1       31      26      13      25      
CTETRA  129     1       26      5       31      13      
CTETRA  130     1       10      3       29      23      
CTETRA  131     1       15      28      7       25      
CTETRA  132     1       18      25      31      6       
CTETRA  133     1       18      14      25      6       
CTETRA  134     1       9       32      22      30      
CTETRA  135     1       2       21      10      30      
CTETRA  136     1       8       28      24      19      
CTETRA  137     1       27      29      11      22      
CTETRA  138     1       5       20      16      26      
CTETRA  139     1       24      16      8       19      
CTETRA  140     1       31      20      5       26      
CTETRA  141     1       3       29      19      10      
CTETRA  142     1       12      32      1       18      
CTETRA  143     1       4       17      27      12      
CTETRA  144     1       10      2       30      20      
CTETRA  145     1       1       32      22      9       
CTETRA  146     1       11      4       27      22      
CTETRA  147     1       9       21      2       30      
CTETRA  148     1       23      3       29      11      
CTETRA  149     1       32      22      12      1       
CTETRA  150     1       12      27      4       22      
CTETRA  151     1       25      17      7       14      
CTETRA  152     1       25      7       17      28      
ENDDATA
